<svg width="86" height="86" viewBox="0 0 86 86" fill="none" xmlns="http://www.w3.org/2000/svg">
<path d="M16.5385 0C12.8948 0 9.92307 2.97176 9.92307 6.61538V69.4615C9.92307 73.1052 12.8948 76.0769 16.5385 76.0769H34.1106C31.7978 74.0871 29.7692 72.1103 28.1154 69.4615H16.5385V6.61538H66.1538V26.1514C68.4666 27.4694 70.7794 28.8131 72.7692 30.8029V6.61538C72.7692 2.97176 69.7975 0 66.1538 0H16.5385ZM26.4615 16.5385V23.1538H56.2308V16.5385H26.4615ZM52.9231 26.4615C48.2845 26.4615 43.9044 27.6632 40.1058 29.7692H26.4615V36.3846H32.3534C28.7097 40.9198 26.4615 46.6824 26.4615 52.9231C26.4615 67.4976 38.3485 79.3846 52.9231 79.3846C58.1689 79.3846 63.0658 77.7954 67.1875 75.1466L78.0409 86L82.6923 81.3486L72.2524 70.9087C76.6454 66.1797 79.3846 59.8615 79.3846 52.9231C79.3846 38.3486 67.4976 26.4615 52.9231 26.4615ZM52.9231 33.0769C63.9186 33.0769 72.7692 41.9276 72.7692 52.9231C72.7692 63.9186 63.9186 72.7692 52.9231 72.7692C41.9276 72.7692 33.0769 63.9186 33.0769 52.9231C33.0769 41.9276 41.9276 33.0769 52.9231 33.0769ZM43 39.6923C39.6923 42.0051 37.3537 45.6487 36.6947 49.6154H62.8461V39.6923H43ZM36.6947 56.2308C37.3537 60.1974 40.0282 63.841 43 66.1538H62.8461V56.2308H36.6947Z" fill="#354D64"/>
</svg>
