<svg width="86" height="86" viewBox="0 0 86 86" fill="none" xmlns="http://www.w3.org/2000/svg">
<g clip-path="url(#clip0_2001_573)">
<path d="M28.1154 0C20.8281 0 15.2335 2.46785 11.6803 6.09856C8.1271 9.72927 6.61538 14.3678 6.61538 18.5024C6.61538 24.7302 9.91016 29.5237 14.1611 32.3534C18.412 35.183 23.5285 36.3846 28.1154 36.3846C30.79 36.3846 33.6454 35.9582 36.3846 35.0409C40.7647 38.3615 46.3465 39.6923 51.2692 39.6923C55.8819 39.6923 60.9856 38.4778 65.2236 35.5577C69.4615 32.6376 72.7692 27.6761 72.7692 21.3966C72.7692 11.3444 63.8023 3.30769 51.2692 3.30769C48.1295 3.30769 45.274 3.82452 42.7933 4.65144C39.0463 1.75721 33.9814 0 28.1154 0ZM28.1154 6.61538C32.7151 6.61538 36.1908 7.79117 38.6587 9.61298C39.0204 10.6983 39.9249 11.5252 41.0361 11.7837C42.3669 13.5925 43 15.7761 43 18.0889C43 22.1977 41.204 24.8077 38.3486 26.7716C37.6379 27.2626 36.7981 27.7407 35.9712 28.1154C35.7644 28.1671 35.5448 28.2317 35.351 28.3221C32.9994 29.2782 30.4282 29.7692 28.1154 29.7692C24.7302 29.7692 20.7377 28.7743 17.8822 26.875C15.0267 24.9757 13.2308 22.5466 13.2308 18.5024C13.2308 16.0733 14.174 13.0628 16.4351 10.75C18.6962 8.4372 22.2752 6.61538 28.1154 6.61538ZM51.2692 9.92308C61.2052 9.92308 66.1538 15.0913 66.1538 21.3966C66.1538 25.5054 64.3579 28.1154 61.5024 30.0793C58.6469 32.0433 54.6286 33.0769 51.2692 33.0769C48.6851 33.0769 45.8167 32.4438 43.3101 31.3197C46.9279 28.335 49.6154 23.7353 49.6154 18.0889C49.6154 15.2722 48.9435 12.5977 47.6514 10.2332C48.7626 10.0523 49.9384 9.92308 51.2692 9.92308ZM81.0385 26.4615C78.2993 26.4615 76.0769 28.6839 76.0769 31.4231C76.0769 34.1623 78.2993 36.3846 81.0385 36.3846C83.7776 36.3846 86 34.1623 86 31.4231C86 28.6839 83.7776 26.4615 81.0385 26.4615ZM4.96154 29.7692C2.22236 29.7692 0 31.9916 0 34.7308C0 37.47 2.22236 39.6923 4.96154 39.6923C7.70072 39.6923 9.92308 37.47 9.92308 34.7308C9.92308 31.9916 7.70072 29.7692 4.96154 29.7692ZM18.399 40.0024C15.8924 40.0024 13.037 41.0619 11.2668 44.0337C9.4967 46.9925 8.85066 51.0754 10.2332 54.3702C10.1815 54.6157 9.76803 54.0859 9.61298 55.6106C9.45793 57.0835 10.1944 59.1767 10.9567 60.1587C11.2927 60.5721 11.8224 60.9339 12.1971 61.0889C12.1971 61.0889 12.5977 63.686 14.7812 66.1538C15.2852 68.1178 13.2308 69.1514 13.2308 69.1514C6.35697 70.3918 0.103365 73.9709 0.103365 77.8341V80.8317C0.103365 85.0309 10.4657 85.8966 19.8462 85.8966C29.2395 85.8966 39.5889 83.2996 39.5889 80.7284V77.8341C39.5889 73.9709 33.3224 70.3918 26.4615 69.1514C26.4615 69.1514 23.8774 68.5959 25.1178 66.1538C26.6424 64.2416 27.6244 62.0063 27.7019 61.2957C27.7019 61.2957 30.0535 59.5514 30.1827 56.9543C30.3377 54.3573 29.6659 54.2668 29.6659 54.2668C30.6478 51.4372 30.8416 41.2169 23.5673 42.4832C23.0505 41.0877 20.9057 40.0024 18.399 40.0024ZM64.7067 40.0024C62.2001 40.0024 59.3447 41.0619 57.5745 44.0337C55.8044 46.9925 55.1584 51.0754 56.5409 54.3702C56.4892 54.6157 56.0757 54.0859 55.9207 55.6106C55.7656 57.0835 56.5021 59.1767 57.2644 60.1587C57.6004 60.5721 58.1301 60.9339 58.5048 61.0889C58.5048 61.0889 58.9053 63.686 61.0889 66.1538C61.5928 68.1178 59.5385 69.1514 59.5385 69.1514C52.6647 70.3918 46.4111 73.9709 46.4111 77.8341V80.8317C46.4111 85.0309 56.7734 85.8966 66.1538 85.8966C75.5472 85.8966 85.8966 83.2996 85.8966 80.7284V77.8341C85.8966 73.9709 79.6301 70.3918 72.7692 69.1514C72.7692 69.1514 70.1851 68.5959 71.4255 66.1538C72.9501 64.2416 73.9321 62.0063 74.0096 61.2957C74.0096 61.2957 76.3612 59.5514 76.4904 56.9543C76.6454 54.3573 75.9736 54.2668 75.9736 54.2668C76.9555 51.4372 77.1493 41.2169 69.875 42.4832C69.3582 41.0877 67.2133 40.0024 64.7067 40.0024ZM82.6923 43C80.8705 43 79.3846 44.4859 79.3846 46.3077C79.3846 48.1295 80.8705 49.6154 82.6923 49.6154C84.5141 49.6154 86 48.1295 86 46.3077C86 44.4859 84.5141 43 82.6923 43ZM3.30769 46.3077C1.48588 46.3077 0 47.7936 0 49.6154C0 51.4372 1.48588 52.9231 3.30769 52.9231C5.12951 52.9231 6.61538 51.4372 6.61538 49.6154C6.61538 47.7936 5.12951 46.3077 3.30769 46.3077Z" fill="#354D64"/>
</g>
<defs>
<clipPath id="clip0_2001_573">
<rect width="86" height="86" fill="white"/>
</clipPath>
</defs>
</svg>
