<svg width="86" height="86" viewBox="0 0 86 86" fill="none" xmlns="http://www.w3.org/2000/svg">
<g clip-path="url(#clip0_2001_582)">
<path d="M43 0C19.2518 0 0 19.2518 0 43C0 66.7482 19.2518 86 43 86C66.7482 86 86 66.7482 86 43C86 31.4489 81.4261 20.9573 74.0096 13.2308C73.8029 13.024 73.5962 12.8173 73.3894 12.6106C70.6115 9.83263 67.433 7.41647 63.9832 5.47837C63.8152 5.375 63.6472 5.25871 63.4663 5.16827C63.1304 4.98738 62.7816 4.83233 62.4327 4.65144C61.5541 4.21214 60.6496 3.79868 59.7452 3.41106C58.5565 2.90715 57.3678 2.46785 56.1274 2.06731C56.024 2.02854 55.9207 1.98979 55.8173 1.96394C53.1557 1.13702 50.4035 0.503907 47.5481 0.206731C47.5093 0.206731 47.4835 0.206731 47.4447 0.206731C45.9976 0.0646035 44.4859 0 43 0ZM43 6.61538V23.1538C32.0562 23.1538 23.1538 32.0562 23.1538 43C23.1538 53.9438 32.0562 62.8462 43 62.8462C47.2509 62.8462 51.14 61.412 54.3702 59.125L66.2572 71.012C59.9519 76.2578 51.8248 79.3846 43 79.3846C22.9342 79.3846 6.61538 63.0658 6.61538 43C6.61538 22.9342 22.9342 6.61538 43 6.61538ZM69.2548 17.7788C73.4023 22.0944 76.4129 27.4435 78.0409 33.387C76.9038 33.9038 76.0769 35.0409 76.0769 36.3846C76.0769 38.1418 77.4465 39.576 79.1779 39.6923C79.2812 40.7776 79.3846 41.8888 79.3846 43C79.3846 44.1112 79.2812 45.2224 79.1779 46.3077C77.4465 46.424 76.0769 47.8582 76.0769 49.6154C76.0769 50.9591 76.9038 52.0962 78.0409 52.613C76.6454 57.6908 74.2939 62.3164 71.012 66.2572L69.0481 64.2933C69.2806 63.841 69.4615 63.3888 69.4615 62.8462C69.4615 61.0243 67.9757 59.5385 66.1538 59.5385C65.6112 59.5385 65.159 59.7194 64.7067 59.9519L62.4327 57.6779C62.6653 57.2257 62.8462 56.7734 62.8462 56.2308C62.8462 54.5898 61.6187 53.2849 60.0553 53.0264C61.8125 50.0676 62.8462 46.6824 62.8462 43C62.8462 39.3176 61.8125 35.9324 60.0553 32.9736C61.6187 32.7151 62.8462 31.4102 62.8462 29.7692C62.8462 28.1283 61.6187 26.8233 60.0553 26.5649L62.9495 23.774C63.2467 25.2858 64.5517 26.4615 66.1538 26.4615C67.9757 26.4615 69.4615 24.9757 69.4615 23.1538C69.4615 21.5904 68.3245 20.4017 66.8774 20.0529L69.2548 17.7788ZM72.7692 26.4615C70.9474 26.4615 69.4615 27.9474 69.4615 29.7692C69.4615 31.591 70.9474 33.0769 72.7692 33.0769C74.591 33.0769 76.0769 31.591 76.0769 29.7692C76.0769 27.9474 74.591 26.4615 72.7692 26.4615ZM43 29.7692C46.747 29.7692 50.1064 31.2939 52.5096 33.8005C54.8095 36.1779 56.2308 39.4339 56.2308 43C56.2308 50.3131 50.3131 56.2308 43 56.2308C35.6869 56.2308 29.7692 50.3131 29.7692 43C29.7692 35.6869 35.6869 29.7692 43 29.7692ZM66.1538 33.0769C64.332 33.0769 62.8462 34.5628 62.8462 36.3846C62.8462 38.2064 64.332 39.6923 66.1538 39.6923C67.9757 39.6923 69.4615 38.2064 69.4615 36.3846C69.4615 34.5628 67.9757 33.0769 66.1538 33.0769ZM72.7692 39.6923C70.9474 39.6923 69.4615 41.1782 69.4615 43C69.4615 44.8218 70.9474 46.3077 72.7692 46.3077C74.591 46.3077 76.0769 44.8218 76.0769 43C76.0769 41.1782 74.591 39.6923 72.7692 39.6923ZM66.1538 46.3077C64.332 46.3077 62.8462 47.7936 62.8462 49.6154C62.8462 51.4372 64.332 52.9231 66.1538 52.9231C67.9757 52.9231 69.4615 51.4372 69.4615 49.6154C69.4615 47.7936 67.9757 46.3077 66.1538 46.3077ZM72.7692 52.9231C70.9474 52.9231 69.4615 54.409 69.4615 56.2308C69.4615 58.0526 70.9474 59.5385 72.7692 59.5385C74.591 59.5385 76.0769 58.0526 76.0769 56.2308C76.0769 54.409 74.591 52.9231 72.7692 52.9231Z" fill="#354D64"/>
</g>
<defs>
<clipPath id="clip0_2001_582">
<rect width="86" height="86" fill="white"/>
</clipPath>
</defs>
</svg>
