<svg width="24" height="24" viewBox="0 0 24 24" fill="none" xmlns="http://www.w3.org/2000/svg">
<path d="M19.1795 2.96553C18.6715 2.47233 18.068 2.08819 17.4061 1.83669C16.7442 1.58519 16.0379 1.47165 15.3305 1.50303C14.3758 1.54116 13.4496 1.8391 12.6518 2.36473C11.8539 2.89037 11.2146 3.62377 10.8028 4.4859C10.391 5.34804 10.2222 6.30621 10.3147 7.25717C10.4072 8.20813 10.7575 9.11581 11.3278 9.88241C12.2881 11.1359 12.9709 12.5793 13.3306 14.1169C13.3499 14.1992 13.3964 14.2726 13.4627 14.3252C13.5289 14.3777 13.611 14.4063 13.6955 14.4064H15.1659V8.02203L14.1275 6.98365C14.0592 6.91293 14.0214 6.8182 14.0223 6.71988C14.0231 6.62156 14.0625 6.5275 14.1321 6.45797C14.2016 6.38845 14.2957 6.34901 14.394 6.34815C14.4923 6.3473 14.587 6.3851 14.6578 6.4534L15.5409 7.33615L16.3711 6.50628C16.4419 6.43797 16.5366 6.40017 16.6349 6.40103C16.7332 6.40188 16.8273 6.44132 16.8968 6.51085C16.9663 6.58038 17.0058 6.67443 17.0066 6.77275C17.0075 6.87108 16.9697 6.9658 16.9014 7.03653L15.9159 8.02203V14.4064H17.3863C17.4707 14.4064 17.5526 14.3779 17.6188 14.3256C17.685 14.2733 17.7316 14.2001 17.7511 14.118C18.0964 12.5962 18.7674 11.1672 19.718 9.92966C20.4981 8.90487 20.8742 7.62911 20.7749 6.34505C20.6757 5.06098 20.1078 3.85821 19.1795 2.96553Z" fill="#7E5342"/>
<path d="M13.3209 15.717V16.6526C13.3209 16.951 13.4394 17.2371 13.6504 17.4481C13.8613 17.6591 14.1475 17.7776 14.4459 17.7776H15.1662V18.1395C15.1711 18.6168 15.0813 19.0902 14.902 19.5326C14.7228 19.9749 14.4576 20.3773 14.1218 20.7165C13.786 21.0557 13.3863 21.325 12.9459 21.5088C12.5054 21.6926 12.0328 21.7872 11.5555 21.7872C11.0783 21.7872 10.6057 21.6926 10.1652 21.5088C9.72474 21.325 9.32506 21.0557 8.9893 20.7165C8.65353 20.3773 8.38834 19.9749 8.20907 19.5326C8.0298 19.0902 7.94 18.6168 7.94486 18.1395V16.092H9.09011C9.84315 16.0912 10.5651 15.7917 11.0976 15.2592C11.6301 14.7268 11.9296 14.0048 11.9304 13.2518C11.9304 13.1523 11.8909 13.0569 11.8205 12.9866C11.7502 12.9163 11.6548 12.8768 11.5554 12.8768H10.0351C9.64166 12.8769 9.25256 12.959 8.89265 13.118C8.53274 13.277 8.20994 13.5092 7.94486 13.8V12C7.94486 11.9005 7.90535 11.8052 7.83502 11.7348C7.7647 11.6645 7.66932 11.625 7.56986 11.625C7.4704 11.625 7.37502 11.6645 7.30469 11.7348C7.23437 11.8052 7.19486 11.9005 7.19486 12V13.8C6.92976 13.5091 6.60692 13.2767 6.24695 13.1176C5.88698 12.9585 5.49779 12.8762 5.10423 12.876H3.58398C3.48453 12.876 3.38915 12.9155 3.31882 12.9858C3.24849 13.0562 3.20898 13.1515 3.20898 13.251C3.20978 14.004 3.50927 14.726 4.04175 15.2585C4.57423 15.791 5.2962 16.0905 6.04923 16.0912H7.19486V18.1387C7.18952 18.7148 7.29837 19.2862 7.51511 19.82C7.73186 20.3537 8.05222 20.8392 8.45768 21.2485C8.86314 21.6577 9.34566 21.9825 9.87738 22.2042C10.4091 22.4259 10.9795 22.5401 11.5555 22.5401C12.1316 22.5401 12.702 22.4259 13.2337 22.2042C13.7654 21.9825 14.248 21.6577 14.6534 21.2485C15.0589 20.8392 15.3792 20.3537 15.596 19.82C15.8127 19.2862 15.9216 18.7148 15.9162 18.1387V17.7769H16.6366C16.935 17.7769 17.2211 17.6583 17.4321 17.4474C17.6431 17.2364 17.7616 16.9502 17.7616 16.6519V15.1556H13.3209V15.717Z" fill="#7E5342"/>
</svg>
