<svg width="86" height="86" viewBox="0 0 86 86" fill="none" xmlns="http://www.w3.org/2000/svg">
<path d="M83.6484 66.5931L50.3906 8.99278C46.3206 1.95101 39.6794 1.95101 35.6094 8.99278L2.35155 66.5931C-1.71846 73.6349 1.61507 79.3846 9.74218 79.3846H76.2578C84.3849 79.3846 87.7055 73.6349 83.6484 66.5931ZM38.4261 25.3374C39.6277 24.0454 41.1394 23.3993 43 23.3993C44.8606 23.3993 46.3723 24.0324 47.5739 25.3116C48.7497 26.5778 49.357 28.18 49.357 30.1052C49.357 31.7461 46.8762 43.8915 46.0493 52.7163H40.067C39.3434 43.8915 36.643 31.7461 36.643 30.1052C36.643 28.2058 37.2503 26.6166 38.4261 25.3374ZM47.4835 67.3296C46.2302 68.5442 44.7314 69.1644 43 69.1644C41.2686 69.1644 39.7698 68.5442 38.5165 67.3296C37.2632 66.1022 36.643 64.6292 36.643 62.8849C36.643 61.1535 37.2632 59.6547 38.5165 58.4014C39.7698 57.1481 41.2686 56.5279 43 56.5279C44.7314 56.5279 46.2302 57.1481 47.4835 58.4014C48.7368 59.6547 49.357 61.1535 49.357 62.8849C49.357 64.6292 48.7368 66.1022 47.4835 67.3296Z" fill="#354D64"/>
</svg>
