<svg width="24" height="24" viewBox="0 0 24 24" fill="none" xmlns="http://www.w3.org/2000/svg">
<g clip-path="url(#clip0_2001_1478)">
<path d="M11.9134 -0.0287892C11.8737 -0.0215777 11.834 -0.0107604 11.798 5.69336e-05C11.3689 0.0974129 11.066 0.48323 11.0768 0.923134V3.69236C11.0732 4.0241 11.2463 4.33419 11.5348 4.50366C11.8232 4.66953 12.1766 4.66953 12.4651 4.50366C12.7535 4.33419 12.9266 4.0241 12.923 3.69236V0.923134C12.9338 0.656307 12.8256 0.400298 12.6345 0.220009C12.4398 0.0361146 12.1766 -0.0540297 11.9134 -0.0287892ZM3.98068 3.23083C3.63453 3.29212 3.35688 3.54453 3.25953 3.87986C3.16217 4.21881 3.26313 4.57938 3.51914 4.81736L5.48068 6.7789C5.70424 7.05294 6.06121 7.17914 6.40736 7.09982C6.74991 7.02049 7.02034 6.75006 7.09967 6.40751C7.179 6.06135 7.05279 5.70438 6.77876 5.48083L4.81722 3.51929C4.62611 3.31376 4.34847 3.20919 4.06722 3.23083C4.03837 3.23083 4.00953 3.23083 3.98068 3.23083ZM19.7307 3.23083C19.5215 3.25967 19.3268 3.36424 19.1826 3.51929L17.2211 5.48083C16.947 5.70438 16.8208 6.06135 16.9002 6.40751C16.9795 6.75006 17.2499 7.02049 17.5925 7.09982C17.9386 7.17914 18.2956 7.05294 18.5191 6.7789L20.4807 4.81736C20.7691 4.54333 20.8521 4.11424 20.6826 3.75366C20.5095 3.38948 20.1273 3.18035 19.7307 3.23083ZM11.9999 6.57698C9.03597 6.57698 6.63453 8.97842 6.63453 11.9424C6.63453 14.9856 9.25952 16.7561 9.25952 18.3174V18.6924C9.25952 19.071 9.57683 19.3847 9.95183 19.3847H14.048C14.423 19.3847 14.7403 19.071 14.7403 18.6924V18.3174C14.7403 16.7525 17.3653 15.0361 17.3653 11.9424C17.3653 8.97842 14.9639 6.57698 11.9999 6.57698ZM11.9999 8.36544C12.6778 8.36544 13.3088 8.55655 13.8461 8.88467C13.7812 8.88107 13.709 8.85583 13.6441 8.85583C11.1237 8.85583 9.08645 10.8967 9.08645 13.3847C9.08645 13.5397 9.10087 13.6948 9.11529 13.8462C8.71145 13.2801 8.45183 12.5698 8.45183 11.827C8.45183 9.90511 10.0492 8.36544 11.9999 8.36544ZM0.663371 11.077C0.154958 11.1491 -0.202014 11.6215 -0.129898 12.1299C-0.0577827 12.6383 0.414573 12.9952 0.922987 12.9231H3.69222C4.02395 12.9267 4.33404 12.7537 4.50352 12.4652C4.66938 12.1767 4.66938 11.8234 4.50352 11.5349C4.33404 11.2465 4.02395 11.0734 3.69222 11.077H0.922987C0.89414 11.077 0.865294 11.077 0.836448 11.077C0.807602 11.077 0.778756 11.077 0.74991 11.077C0.721063 11.077 0.692217 11.077 0.663371 11.077ZM20.048 11.077C19.5396 11.1491 19.1826 11.6215 19.2547 12.1299C19.3268 12.6383 19.7992 12.9952 20.3076 12.9231H23.0768C23.4086 12.9267 23.7187 12.7537 23.8881 12.4652C24.054 12.1767 24.054 11.8234 23.8881 11.5349C23.7187 11.2465 23.4086 11.0734 23.0768 11.077H20.3076C20.2788 11.077 20.2499 11.077 20.2211 11.077C20.1922 11.077 20.1634 11.077 20.1345 11.077C20.1057 11.077 20.0768 11.077 20.048 11.077ZM6.02876 16.9327C5.81962 16.9616 5.62491 17.0662 5.48068 17.2212L3.51914 19.1827C3.2451 19.4063 3.1189 19.7633 3.19823 20.1094C3.27755 20.452 3.54799 20.7224 3.89054 20.8017C4.23669 20.8811 4.59366 20.7549 4.81722 20.4808L6.77876 18.5193C7.05279 18.2561 7.13573 17.8486 6.98789 17.4989C6.84366 17.1491 6.4939 16.9255 6.11529 16.9327C6.08645 16.9327 6.0576 16.9327 6.02876 16.9327ZM17.6826 16.9327C17.3364 16.994 17.0588 17.2465 16.9614 17.5818C16.8641 17.9207 16.9651 18.2813 17.2211 18.5193L19.1826 20.4808C19.4062 20.7549 19.7631 20.8811 20.1093 20.8017C20.4518 20.7224 20.7223 20.452 20.8016 20.1094C20.8809 19.7633 20.7547 19.4063 20.4807 19.1827L18.5191 17.2212C18.3461 17.0373 18.1081 16.9364 17.8557 16.9327C17.8268 16.9327 17.798 16.9327 17.7691 16.9327C17.7403 16.9327 17.7114 16.9327 17.6826 16.9327ZM9.92299 20.3077C9.54438 20.3077 9.23068 20.6178 9.23068 21.0001V22.3847C9.23068 22.7669 9.54438 23.077 9.92299 23.077H10.4999C10.8028 23.607 11.3473 23.9712 11.9999 23.9712C12.6526 23.9712 13.197 23.607 13.4999 23.077H14.0768C14.4554 23.077 14.7691 22.7669 14.7691 22.3847V21.0001C14.7691 20.6178 14.4554 20.3077 14.0768 20.3077H9.92299Z" fill="#7E5342"/>
</g>
<defs>
<clipPath id="clip0_2001_1478">
<rect width="24" height="24" fill="white"/>
</clipPath>
</defs>
</svg>
