<svg width="25" height="24" viewBox="0 0 25 24" fill="none" xmlns="http://www.w3.org/2000/svg">
<g clip-path="url(#clip0_2001_1460)">
<path d="M15.7596 4.67307C15.4964 4.6911 15.2368 4.78125 14.9519 4.93269C13.6755 5.61057 9.04567 8.24639 9.03846 8.25C8.38221 8.63581 8.16226 9.49759 8.54808 10.1538C8.91226 10.774 9.69832 11.0048 10.3365 10.7019C10.4014 10.6695 12.6478 9.51923 13.6827 8.97115C14.7861 8.38702 15.4712 9.05769 15.4712 9.05769C15.4712 9.05769 19.4555 13.0312 20.5769 14.1058C21.3053 14.8053 22.3041 14.4627 22.625 14.4231C22.9459 14.3834 24.5 14.0769 24.5 14.0769V6.80769C24.5 6.80769 22.1202 7.36298 20.7212 7.64423C20.2921 7.73077 19.7692 7.4423 19.7692 7.4423C19.7692 7.4423 18.6082 6.45072 17.3173 5.36538C16.6647 4.8137 16.1995 4.64062 15.7596 4.67307ZM9.52885 4.75961C8.05769 4.75961 5 6.77884 5 6.77884C5 6.77884 4.13462 7.33774 2.89423 6.83653L0.5 6V14.3077C0.5 14.3077 1.1851 14.5204 1.79808 14.7692C1.9387 14.3762 2.15144 14.0012 2.46154 13.7019C3.47837 12.732 5.16947 12.7212 6.09615 13.6731C6.3738 13.9615 6.57212 14.3329 6.67308 14.7115C7.04808 14.8269 7.37981 15.0072 7.65385 15.2885C7.9351 15.5769 8.12981 15.9195 8.23077 16.2981C8.60577 16.4135 8.9375 16.6226 9.21154 16.9038C9.51803 17.2212 9.71995 17.6142 9.81731 18.0288C10.2067 18.1442 10.5709 18.3425 10.8558 18.6346C11.4111 19.2043 11.6094 19.9904 11.4904 20.7404C11.4904 20.7404 11.8257 21.1334 12.0385 21.3462C12.4495 21.7572 13.1274 21.7572 13.5385 21.3462C13.9495 20.9351 13.9495 20.2572 13.5385 19.8462C13.524 19.8317 12.0168 18.3101 12.1538 18.1731C12.2909 18.0361 14.1983 20.0156 14.2019 20.0192C14.6094 20.4267 15.2656 20.4267 15.6731 20.0192C16.0697 19.619 16.0805 18.988 15.7019 18.5769C15.6947 18.5697 13.9784 16.7236 14.0865 16.6154C14.2091 16.4928 16.2752 18.6346 16.2788 18.6346C16.6935 19.0168 17.3462 19.0096 17.75 18.6058C18.1538 18.2019 18.1358 17.5493 17.75 17.1346C17.7464 17.131 16.0553 15.3101 16.1635 15.2019C16.2716 15.0937 18.0349 16.8425 18.0385 16.8462C18.4495 17.2572 19.0986 17.2572 19.5096 16.8462C19.9207 16.4351 19.9207 15.7572 19.5096 15.3462C19.5024 15.3389 17.2091 13.0781 14.8942 10.7596C14.8942 10.7596 14.2236 10.0385 13.3077 10.4423C12.6659 10.7236 11.8257 11.131 11.2019 11.4231C10.5168 11.7837 9.91106 11.8846 9.78846 11.8846C8.46154 11.8846 7.39423 10.8137 7.39423 9.49038C7.39423 8.63221 7.84135 7.86779 8.51923 7.4423C9.47476 6.77884 11.6923 5.625 11.6923 5.625C11.6923 5.625 11 4.75961 9.52885 4.75961ZM4.30769 14.0769C3.9399 14.0877 3.5649 14.2248 3.26923 14.5096C2.67788 15.0793 2.27764 16.1286 2.80769 16.7308C3.33414 17.3329 3.95793 16.9507 4.42308 16.8462C4.29327 17.3041 3.88942 17.7476 4.36538 18.3462C4.83774 18.9483 5.51563 18.5661 5.98077 18.4615C5.85096 18.9195 5.46514 19.4026 5.92308 19.9615C6.38101 20.5204 7.15625 20.2031 7.65385 20.0481C7.46274 20.5421 7.04087 21.0937 7.56731 21.6923C8.09375 22.2909 9.30889 22.0024 9.90385 21.4327C10.4952 20.8666 10.5421 19.9543 10.0192 19.4135C9.65865 19.0457 9.12861 18.9699 8.63462 19.125C8.82933 18.631 8.77524 18.0613 8.40385 17.6827C8.07212 17.3401 7.57091 17.2608 7.10577 17.3654C7.23558 16.9074 7.18149 16.4135 6.84615 16.0673C6.51442 15.7284 6.01322 15.6454 5.54808 15.75C5.67788 15.2921 5.62019 14.7981 5.28846 14.4519C5.02524 14.1815 4.67548 14.0661 4.30769 14.0769Z" fill="#7E5342"/>
</g>
<defs>
<clipPath id="clip0_2001_1460">
<rect width="24" height="24" fill="white" transform="translate(0.5)"/>
</clipPath>
</defs>
</svg>
