<svg width="22" height="24" viewBox="0 0 22 24" fill="none" xmlns="http://www.w3.org/2000/svg">
<path d="M6.07812 17.6806V19.3675L3.73939 20.6669C3.41736 20.4064 3.00795 20.25 2.5625 20.25C1.52863 20.25 0.6875 21.0911 0.6875 22.125C0.6875 23.1589 1.52863 24 2.5625 24C3.59637 24 4.4375 23.1589 4.4375 22.125C4.4375 22.0473 4.4322 21.9709 4.42297 21.8957L7.12269 20.3959C7.34595 20.2719 7.48438 20.0366 7.48438 19.7812V17.1797L7.14978 17.3805C6.82583 17.5748 6.45556 17.6783 6.07812 17.6806Z" fill="#7E5342"/>
<path d="M11.7031 20.3873V19.2188H10.2969V20.3873C9.61048 20.6661 9.125 21.3397 9.125 22.125C9.125 23.1589 9.96613 24 11 24C12.0339 24 12.875 23.1589 12.875 22.125C12.875 21.3397 12.3896 20.6661 11.7031 20.3873Z" fill="#7E5342"/>
<path d="M19.4375 20.25C18.992 20.25 18.5826 20.4064 18.2606 20.6668L15.9219 19.3675V17.6806C15.5444 17.6782 15.1742 17.5748 14.8503 17.3805L14.5156 17.1797V19.7812C14.5156 20.0366 14.654 20.2719 14.8773 20.3959L17.577 21.8957C17.5678 21.9709 17.5625 22.0473 17.5625 22.125C17.5625 23.1589 18.4036 24 19.4375 24C20.4714 24 21.3125 23.1589 21.3125 22.125C21.3125 21.0911 20.4714 20.25 19.4375 20.25Z" fill="#7E5342"/>
<path d="M16.4327 16.0689L18.1626 14.3389C18.3908 14.1108 18.4344 13.7566 18.2684 13.48L17.6259 12.409C17.8435 11.9975 18.0226 11.5641 18.1607 11.1149L19.3737 10.8116C19.6866 10.7334 19.9062 10.4521 19.9062 10.1295V7.683C19.9062 7.36036 19.6866 7.07911 19.3737 7.00088L18.1607 6.69764C18.0226 6.24844 17.8434 5.81498 17.6258 5.40342L18.2684 4.33247C18.4344 4.05581 18.3908 3.70167 18.1626 3.47353L16.4328 1.74361C16.2046 1.51547 15.8505 1.47188 15.5738 1.63786L14.5028 2.28042C14.0913 2.06278 13.6579 1.88367 13.2087 1.74553L12.9054 0.532594C12.8271 0.219563 12.5459 0 12.2233 0H9.77675C9.45411 0 9.17286 0.219563 9.09463 0.532594L8.79139 1.74553C8.34228 1.88362 7.90878 2.06283 7.49727 2.28042L6.42622 1.63786C6.14956 1.47188 5.79542 1.51547 5.56733 1.74361L3.83741 3.47353C3.60927 3.70167 3.56567 4.05581 3.73166 4.33247L4.37422 5.40342C4.15658 5.81498 3.97747 6.24844 3.83933 6.69764L2.62639 7.00088C2.31331 7.07911 2.09375 7.36036 2.09375 7.683V10.1295C2.09375 10.4521 2.31331 10.7334 2.62634 10.8116L3.83928 11.1149C3.97742 11.5641 4.15658 11.9975 4.37413 12.409L3.73161 13.48C3.56563 13.7566 3.60922 14.1108 3.83736 14.3389L5.56728 16.0689C5.79542 16.297 6.14956 16.3406 6.42622 16.1746L7.49717 15.5321C7.90878 15.7497 8.34223 15.9289 8.79134 16.067L9.09458 17.28C9.17281 17.5929 9.45406 17.8125 9.7767 17.8125H12.2232C12.5458 17.8125 12.8271 17.593 12.9053 17.28L13.2086 16.067C13.6577 15.9289 14.0911 15.7497 14.5027 15.5321L15.5737 16.1746C15.8504 16.3406 16.2046 16.297 16.4327 16.0689ZM11 12.1875C9.18781 12.1875 7.71875 10.7184 7.71875 8.90625C7.71875 7.09406 9.18781 5.625 11 5.625C12.8122 5.625 14.2812 7.09406 14.2812 8.90625C14.2812 10.7184 12.8122 12.1875 11 12.1875Z" fill="#7E5342"/>
</svg>
