<svg width="24" height="24" viewBox="0 0 24 24" fill="none" xmlns="http://www.w3.org/2000/svg">
<path d="M13.4496 0.962713C14.2609 2.31127 13.3414 3.99877 12.6563 5.46992C12.065 6.73555 12.1551 8.17065 13.7381 7.98675C15.6455 7.7668 16.4171 7.61536 18.0397 7.50358C19.6804 7.3918 20.196 8.06247 20.196 8.68627C20.196 9.69228 19.8607 9.768 19.8607 10.1538C19.8607 10.5396 21.1191 10.2908 21.1191 11.5565C21.1191 12.8221 20.1347 12.7824 20.1347 13.1358C20.1347 13.4892 21.0938 13.6478 21.0938 14.661C21.0938 15.6743 19.803 15.8077 19.803 16.2259C19.803 16.6442 20.2212 16.7524 20.2212 17.3798C20.2212 18.0072 18.9123 19.3846 14.297 19.3846C6.43277 19.3846 7.36306 17.5024 3.69238 17.5024V10.5396C5.60344 10.5396 5.49887 8.84853 6.81859 7.55767C8.14911 6.25598 10.6948 3.30646 11.196 0.980742C11.5277 -0.57695 12.952 0.12978 13.4496 0.962713Z" fill="#7E5342"/>
</svg>
