<svg width="24" height="24" viewBox="0 0 24 24" fill="none" xmlns="http://www.w3.org/2000/svg">
<path d="M21.8149 4.64064C21.631 4.43151 21.3714 4.31252 21.0973 4.3017C18.9808 4.24761 16.2981 1.98319 14.5276 1.09257C13.4315 0.548096 12.7103 0.183913 12.1659 0.0901631C12.1082 0.0829515 12.0541 0.0793457 12 0.0793457C11.9459 0.0793457 11.8918 0.0829515 11.8341 0.0901631C11.2897 0.187519 10.5685 0.548096 9.47596 1.09617C7.70192 1.98319 5.02283 4.24761 2.90264 4.3017C2.6286 4.31252 2.36899 4.43151 2.18509 4.64064C1.99759 4.84978 1.90384 5.12742 1.91466 5.41228C2.37259 14.6647 5.6899 20.3906 11.5132 23.7152C11.6647 23.8017 11.8305 23.8486 12 23.8486C12.1659 23.8486 12.3353 23.8017 12.4868 23.7152C18.3101 20.3906 21.6274 14.6647 22.0817 5.41228C22.0961 5.12742 22.0024 4.84978 21.8149 4.64064ZM17.1851 8.27886L12.2704 15.5301C12.0937 15.7897 11.8197 15.9628 11.5457 15.9628C11.268 15.9628 10.9651 15.8149 10.7704 15.6202L7.30528 12.1551C7.07091 11.9207 7.07091 11.5349 7.30528 11.3005L8.16346 10.4423C8.39783 10.208 8.78365 10.208 9.01802 10.4423L11.2716 12.6959L15.1839 6.91949C15.3678 6.64545 15.7464 6.57334 16.024 6.76084L17.0228 7.43872C17.3005 7.62622 17.3726 8.00483 17.1851 8.27886Z" fill="#7E5342"/>
</svg>
