<svg width="86" height="86" viewBox="0 0 86 86" fill="none" xmlns="http://www.w3.org/2000/svg">
<g clip-path="url(#clip0_2001_580)">
<path d="M43.3101 6.61539C19.1614 6.61539 0 26.0998 0 49.6154C0 56.9414 1.84766 63.9703 5.16827 69.9784L5.27163 70.2885L5.47837 70.7019C6.58954 72.9501 9.21244 74.0096 11.5769 73.1827C11.6157 73.1827 11.6415 73.1827 11.6803 73.1827C12.0421 73.1827 12.4038 73.0793 12.7139 72.8726L19.5361 69.0481C19.7557 68.9835 19.9754 68.8801 20.1562 68.738C20.7377 68.1178 20.8152 67.1746 20.363 66.4639L19.226 64.5C18.9805 64.0607 18.5799 63.7248 18.0889 63.5826C17.598 63.4534 17.0811 63.518 16.6418 63.7764L13.9543 65.3269C11.409 60.8176 9.92308 55.4039 9.92308 49.6154C9.92308 44.628 11.0472 39.912 13.024 35.6611L15.4014 37.0048C15.5177 37.1211 15.6599 37.2374 15.8149 37.3149C16.6677 37.5604 17.5721 37.1728 17.9856 36.3846L19.1226 34.4207C19.6007 33.555 19.3293 32.4697 18.5024 31.9399L16.0216 30.4928C21.4354 22.8825 30.0147 17.6626 40.1058 16.7452V21.1899C40.1058 22.2236 40.9327 23.0505 41.9663 23.0505H44.3438C45.3774 23.0505 46.2043 22.2236 46.2043 21.1899V16.7452C56.0111 17.6367 64.6938 22.8438 70.1851 30.4928L67.4976 32.0433C67.4588 32.0433 67.433 32.0433 67.3942 32.0433C66.9808 32.3146 66.6965 32.741 66.5931 33.232C66.5027 33.71 66.6061 34.2139 66.8774 34.6274L68.0144 36.5914C68.2599 37.0436 68.6605 37.3666 69.1514 37.5087C69.6424 37.6379 70.1593 37.5733 70.5986 37.3149L73.2861 35.6611C75.2888 39.912 76.387 44.6539 76.387 49.6154C76.387 55.055 74.7849 60.3912 72.2524 65.3269L69.5649 63.8798C69.384 63.7377 69.1644 63.6343 68.9447 63.5697C68.1565 63.4276 67.3684 63.8023 66.9808 64.5L65.8438 66.5673C65.3786 67.4588 65.7016 68.5442 66.5673 69.0481L73.3894 72.976C73.79 73.2085 74.2809 73.2861 74.7332 73.1827C76.2837 73.6091 77.9375 73.2602 79.1779 72.2524C79.3975 72.0974 79.6043 71.9294 79.7981 71.7356C79.8627 71.6968 79.9402 71.671 80.0048 71.6322C80.0048 71.5935 80.0048 71.5676 80.0048 71.5289C80.1082 71.4255 80.2115 71.3221 80.3149 71.2188C80.3149 71.18 80.3149 71.1542 80.3149 71.1154C80.5087 70.9216 80.6767 70.7149 80.8317 70.4952C84.1007 64.332 86.3101 57.2257 86.3101 49.6154C86.3101 26.0481 66.8774 6.61539 43.3101 6.61539ZM43 43C39.3434 43 36.3846 45.9588 36.3846 49.6154C36.3846 53.2719 39.3434 56.2308 43 56.2308C44.8218 56.2308 46.4498 55.4685 47.6514 54.2668C53.6725 53.8017 69.6941 52.5742 70.8053 52.3029C72.1232 51.967 73.0793 51.2434 73.0793 49.9255C72.7434 48.2716 71.8131 47.3414 70.4952 47.3414C69.9396 47.3414 53.8275 45.6746 47.7548 45.0673C46.5532 43.814 44.8864 43 43 43ZM32.4567 69.4615C30.8804 69.7587 29.7434 71.1542 29.7692 72.7692V76.0769C29.7692 77.8987 31.2551 79.3846 33.0769 79.3846H52.9231C54.7449 79.3846 56.2308 77.8987 56.2308 76.0769V72.7692C56.2308 70.9474 54.7449 69.4615 52.9231 69.4615H33.0769C32.9736 69.4615 32.8702 69.4615 32.7668 69.4615C32.6635 69.4615 32.5601 69.4615 32.4567 69.4615Z" fill="#354D64"/>
</g>
<defs>
<clipPath id="clip0_2001_580">
<rect width="86" height="86" fill="white"/>
</clipPath>
</defs>
</svg>
