<svg width="86" height="86" viewBox="0 0 86 86" fill="none" xmlns="http://www.w3.org/2000/svg">
<g clip-path="url(#clip0_2001_578)">
<path d="M42.6899 -0.103344C42.5478 -0.0775031 42.4057 -0.0387413 42.2764 2.09138e-05C40.7389 0.34888 39.6535 1.73139 39.6923 3.30771V6.61541H9.92308C4.44471 6.61541 0 11.0601 0 16.5385V59.5385C0 65.0168 4.44471 69.4616 9.92308 69.4616H39.6923V70.7019L21.7067 79.6947C20.0529 80.4958 19.3552 82.4856 20.1562 84.1394C20.9573 85.7933 22.9471 86.491 24.601 85.6899L39.6923 78.1442V79.3846C39.6794 80.5733 40.2996 81.6845 41.3332 82.2918C42.3669 82.8861 43.6331 82.8861 44.6668 82.2918C45.7004 81.6845 46.3206 80.5733 46.3077 79.3846V78.1442L61.399 85.6899C63.0529 86.491 65.0427 85.7933 65.8438 84.1394C66.6448 82.4856 65.9471 80.4958 64.2933 79.6947L46.3077 70.7019V69.4616H76.0769C81.5553 69.4616 86 65.0168 86 59.5385V16.5385C86 11.0601 81.5553 6.61541 76.0769 6.61541H46.3077V3.30771C46.3465 2.35158 45.9588 1.43422 45.274 0.788181C44.5763 0.129228 43.6331 -0.193789 42.6899 -0.103344ZM6.61538 16.5385H79.3846V59.5385H6.61538V16.5385ZM69.0481 19.8462C68.3116 19.9237 67.6139 20.2596 67.0841 20.7765L56.2308 31.6298L48.6851 24.0842C47.9486 23.3348 46.902 22.973 45.8684 23.1151C44.8218 23.2572 43.9174 23.8903 43.4135 24.8077L33.5938 41.9664L29.5625 31.8366C29.162 30.7771 28.2446 29.9889 27.1334 29.7563C26.0222 29.5238 24.8723 29.8855 24.0841 30.6995L14.1611 40.6226C12.8432 41.9405 12.8432 44.0595 14.1611 45.3774C15.479 46.6953 17.598 46.6953 18.9159 45.3774L25.2212 39.0721L29.976 50.8558C30.4282 52.0574 31.5523 52.8973 32.8444 52.9877C34.1235 53.0652 35.351 52.4063 35.9712 51.2693L47.0312 31.9399L53.8534 38.762C54.4736 39.4081 55.3392 39.7699 56.2308 39.7699C57.1223 39.7699 57.988 39.4081 58.6082 38.762L71.8389 25.5313C72.9114 24.5364 73.1956 22.9601 72.5496 21.6551C71.9165 20.3372 70.4823 19.6136 69.0481 19.8462Z" fill="#354D64"/>
</g>
<defs>
<clipPath id="clip0_2001_578">
<rect width="86" height="86" fill="white"/>
</clipPath>
</defs>
</svg>
