<svg width="24" height="22" viewBox="0 0 24 22" fill="none" xmlns="http://www.w3.org/2000/svg">
<path d="M11.9999 7.98755C11.5325 8.55258 10.8711 9.56278 10.8301 10.7921C10.7963 11.8045 11.1894 12.8092 12 13.7862C12.8106 12.8092 13.2036 11.8045 13.1699 10.7921C13.1287 9.56321 12.4677 8.55305 11.9999 7.98755Z" fill="#7E5342"/>
<path d="M9.42548 10.7294C9.42557 10.7267 9.42576 10.7242 9.42586 10.7215C8.63161 10.2121 7.75087 10.0419 7.16357 9.98804C7.2322 10.7178 7.47848 11.9019 8.31984 12.8013C8.8395 13.3569 9.52631 13.739 10.3714 13.9448C9.70242 12.9132 9.38503 11.8368 9.42548 10.7294Z" fill="#7E5342"/>
<path d="M17.485 0.11377C15.1823 0.11377 13.1587 1.30847 12 3.1118C10.8413 1.30847 8.8177 0.11377 6.51497 0.11377C2.91684 0.11377 0 3.03061 0 6.62874C0 11 2.94333 15.4347 12 21.8862C21.0567 15.4347 24 11 24 6.62874C24 3.03061 21.0832 0.11377 17.485 0.11377ZM16.7183 13.7502C15.6203 14.9314 14.0329 15.5304 12 15.5304C9.96712 15.5304 8.37966 14.9315 7.2817 13.7502C5.56411 11.9023 5.73136 9.32532 5.73933 9.21647L5.78363 8.61085L6.38925 8.56655C6.47522 8.56013 8.10239 8.4548 9.69319 9.25833C10.2499 7.5653 11.4752 6.48924 11.5404 6.43285L12 6.03596L12.4596 6.43285C12.5248 6.48919 13.7501 7.5653 14.3068 9.25838C15.8976 8.45494 17.5247 8.56036 17.6108 8.56655L18.2164 8.61085L18.2607 9.21647C18.2686 9.32527 18.4359 11.9023 16.7183 13.7502Z" fill="#7E5342"/>
<path d="M14.5747 10.7293C14.6152 11.8367 14.2978 12.9131 13.6289 13.9446C14.4782 13.7378 15.1677 13.3529 15.6883 12.7928C16.5292 11.8881 16.7728 10.7157 16.8393 9.9906C16.2506 10.046 15.3664 10.2171 14.5744 10.7227C14.5745 10.7249 14.5746 10.7271 14.5747 10.7293Z" fill="#7E5342"/>
</svg>
