<svg width="24" height="24" viewBox="0 0 24 24" fill="none" xmlns="http://www.w3.org/2000/svg">
<g clip-path="url(#clip0_4001_51)">
<path d="M21.8893 11.1476H16.6763V9.66412H18.9739C19.9041 9.66412 20.6607 8.90753 20.6607 7.97754V4.03033C20.6607 3.10034 19.9039 2.34375 18.9739 2.34375H12.9723C12.0423 2.34375 11.2857 3.10034 11.2857 4.03033V7.97736C11.2857 8.90753 12.0423 9.66412 12.9723 9.66412H15.2701V11.1476H8.02844V9.2948H8.26282C8.651 9.2948 8.96594 8.98004 8.96594 8.59167C8.96594 8.20349 8.651 7.88855 8.26282 7.88855H3.12634C2.73798 7.88855 2.42322 8.20349 2.42322 8.59167C2.42322 8.98004 2.73798 9.2948 3.12634 9.2948H3.36072V11.1476H2.11066C0.946838 11.1476 0 12.091 0 13.2506C0 13.639 0.314758 13.9537 0.703125 13.9537C1.09149 13.9537 1.40625 13.639 1.40625 13.2506C1.40625 12.8665 1.72229 12.5539 2.11066 12.5539H3.36072V20.9531C3.36072 21.3415 3.67548 21.6562 4.06384 21.6562C4.45221 21.6562 4.76697 21.3415 4.76697 20.9531V12.5539H12.4988V14.9965H19.233V16.4028H12.4988V17.6272C12.4988 18.5574 13.2556 19.3141 14.1859 19.3141H19.233V20.9531C19.233 21.3415 19.5478 21.6562 19.9362 21.6562C20.3245 21.6562 20.6393 21.3415 20.6393 20.9531V12.5539H21.8893C22.2777 12.5539 22.5938 12.8665 22.5938 13.2506C22.5938 13.639 22.9085 13.9537 23.2969 13.9537C23.6852 13.9537 24 13.639 24 13.2506C24 12.091 23.0532 11.1476 21.8893 11.1476ZM14.3672 6.00403C14.3672 5.61566 14.6819 5.3009 15.0703 5.3009H16.8761C17.2643 5.3009 17.5792 5.61566 17.5792 6.00403C17.5792 6.39221 17.2643 6.70715 16.8761 6.70715H15.0703C14.6819 6.70715 14.3672 6.39221 14.3672 6.00403Z" fill="#7E5342"/>
<path d="M8.0177 6.48224C8.02466 6.40881 8.02832 6.33429 8.02832 6.25903C8.02832 5.88605 7.90454 5.20618 6.83411 3.61426C6.57867 3.23431 6.15259 3.00745 5.69446 3.00745C5.23633 3.00745 4.81024 3.23431 4.55481 3.61426C3.48438 5.20636 3.3606 5.88605 3.3606 6.25903C3.3606 6.33429 3.36426 6.40881 3.37122 6.48224H8.0177Z" fill="#7E5342"/>
</g>
<defs>
<clipPath id="clip0_4001_51">
<rect width="24" height="24" fill="white"/>
</clipPath>
</defs>
</svg>
